<svg width="46" height="40" viewBox="0 0 46 40" fill="none" xmlns="http://www.w3.org/2000/svg">
<path d="M45.666 27.08C45.666 33.9997 40.0564 39.6093 33.1367 39.6093L14.3428 39.6093C12.4207 39.6093 10.8625 38.051 10.8625 36.1289L10.8625 12.4625C10.8625 8.61825 13.9789 5.50185 17.8232 5.50185L42.1856 5.50185C44.1078 5.50185 45.666 7.06005 45.666 8.9822L45.666 27.08Z" fill="#E8F5E9"/>
<path d="M20.1283 17.0877C19.9607 17.0877 19.805 17.0416 19.6668 16.9675V16.9694C19.6668 17.2331 19.5643 17.4808 19.3783 17.6663C19.1924 17.8522 18.9449 17.9547 18.6815 17.9547C18.5115 17.9547 18.3539 17.9075 18.2141 17.8314C18.2 18.0726 18.1036 18.2981 17.9316 18.4703C17.7456 18.6563 17.4982 18.7588 17.2346 18.7588C16.7109 18.7588 16.2857 18.3472 16.2551 17.8312C16.093 17.9188 15.9099 17.9647 15.7209 17.9526C15.2058 17.9188 14.8024 17.4737 14.8024 16.9391V12.5075L14.2978 13.3817C14.1056 13.7161 13.7458 13.9237 13.3584 13.9237C13.1697 13.9237 12.9832 13.8742 12.8181 13.7795C12.6124 13.6603 12.4653 13.4689 12.4042 13.24C12.3427 13.0109 12.3745 12.7713 12.4934 12.566C12.4935 12.566 14.1444 9.70707 14.2452 9.53146C14.2571 9.50506 14.2912 9.42848 14.3203 9.36321C14.348 9.30089 14.3718 9.23693 14.3946 9.17265C14.8924 7.76709 16.1252 6.89399 17.6119 6.89399C19.5426 6.89399 21.1133 8.5972 21.1133 10.6908L21.1135 16.1023C21.1135 16.3656 21.0112 16.6131 20.8254 16.7992C20.6394 16.9852 20.3919 17.0877 20.1282 17.0877L20.1283 17.0877ZM17.612 7.41753C16.3344 7.41753 15.3162 8.13912 14.888 9.34774C14.8606 9.42449 14.8321 9.50123 14.7988 9.57602C14.7022 9.79265 14.7022 9.79265 14.675 9.82381L14.6714 9.82069C14.5366 10.075 14.1361 10.7686 12.9467 12.828C12.8978 12.9124 12.8849 13.0105 12.9098 13.1043C12.935 13.1981 12.9956 13.2772 13.0794 13.3255C13.3395 13.4749 13.6957 13.3785 13.8439 13.1202L14.8375 11.3999C14.8969 11.2974 15.0169 11.2471 15.1321 11.2782C15.2465 11.3089 15.3261 11.4127 15.3261 11.5311V16.9393C15.3261 17.1944 15.5186 17.4147 15.7552 17.4302C15.8917 17.4374 16.0189 17.3917 16.1145 17.2963C16.2015 17.2093 16.2493 17.0936 16.2493 16.9697V13.4328C16.2493 13.2881 16.3666 13.1709 16.5112 13.1709C16.6559 13.1709 16.7731 13.2879 16.7731 13.4328L16.773 17.7737C16.773 18.0282 16.9801 18.2353 17.2346 18.2353C17.3583 18.2353 17.4744 18.1875 17.5615 18.1005C17.6484 18.0135 17.6963 17.8974 17.6963 17.7737V13.4328C17.6963 13.2881 17.8133 13.1709 17.9581 13.1709C18.1028 13.1709 18.22 13.2879 18.22 13.4328L18.2199 16.9291V16.9697C18.2199 17.2241 18.427 17.4312 18.6817 17.4312C18.8052 17.4312 18.9209 17.3831 19.0085 17.2959C19.0954 17.2091 19.1433 17.0934 19.1433 16.9696V13.4326C19.1433 13.2879 19.2604 13.1707 19.4052 13.1707C19.5499 13.1707 19.6671 13.2878 19.6671 13.4326L19.6668 16.1024C19.6668 16.3571 19.8739 16.5642 20.1283 16.5642C20.2521 16.5642 20.3678 16.5161 20.4548 16.4294C20.542 16.3421 20.5897 16.226 20.5897 16.1024L20.5899 10.6909C20.5899 8.88616 19.254 7.41758 17.6119 7.41758L17.612 7.41753Z" fill="#103E13"/>
<path d="M9.83859 20.8488L13.6389 18.569C14.0971 18.2938 14.6867 18.4108 14.9806 18.8353C15.0878 18.99 15.1426 19.1702 15.1511 19.3537C15.2928 19.2798 15.4469 19.2396 15.6039 19.2396C15.6842 19.2396 15.7649 19.2496 15.8446 19.2694C16.1 19.3332 16.3151 19.4928 16.4504 19.7184C16.5859 19.9444 16.6254 20.2092 16.5616 20.4643C16.5027 20.7003 16.3592 20.8989 16.1597 21.0352C16.2992 21.1175 16.4196 21.2298 16.5052 21.3728C16.6407 21.5988 16.6802 21.8635 16.6165 22.1188C16.5528 22.3739 16.3932 22.589 16.1672 22.7246L16.1659 22.7255C16.303 22.8076 16.4212 22.9188 16.5059 23.0597C16.6415 23.2857 16.681 23.5505 16.6172 23.8058C16.5533 24.061 16.3937 24.2762 16.168 24.4116L11.5278 27.1954C10.6617 27.7148 9.66053 27.894 8.70905 27.6997C7.74904 27.5036 6.95398 26.9518 6.47056 26.1459C5.70552 24.8708 5.82017 23.3644 6.76919 22.2146C6.81265 22.1621 6.85545 22.1087 6.89432 22.0533C6.93548 21.9947 6.98353 21.9258 6.99993 21.9022C7.09816 21.7267 8.70104 18.8388 8.70088 18.8392C8.86274 18.5471 9.16612 18.3818 9.47901 18.3819C9.62497 18.3819 9.77305 18.4178 9.90967 18.4936C10.0746 18.5858 10.2132 18.7201 10.3101 18.8819C10.5094 19.214 10.5164 19.6296 10.3288 19.9659L9.83859 20.8488ZM9.86138 19.1512C9.81055 19.0664 9.74068 18.9988 9.65524 18.9509C9.47862 18.8532 9.25625 18.9168 9.15901 19.0928C8.01206 21.1591 7.62109 21.8633 7.4702 22.1139L7.47365 22.1147C7.46102 22.1567 7.46102 22.1567 7.32294 22.354C7.27604 22.4207 7.22504 22.4848 7.17305 22.548C6.357 23.5367 6.26225 24.7809 6.91935 25.8765C7.32638 26.5551 7.99909 27.0203 8.81362 27.1866C9.63702 27.3541 10.5049 27.1983 11.2581 26.7463L15.8988 23.9624C16.0048 23.899 16.0795 23.7981 16.1094 23.6785C16.1392 23.5592 16.1207 23.435 16.0571 23.3291C15.9262 23.111 15.642 23.0393 15.4239 23.1707L13.1346 24.5441C13.0106 24.6186 12.8495 24.5785 12.7753 24.4544C12.7008 24.3304 12.741 24.1695 12.865 24.0951L15.1545 22.7217L15.898 22.2756C16.0039 22.212 16.0789 22.1111 16.1087 21.9919C16.1386 21.8723 16.12 21.748 16.0564 21.6423C15.9254 21.424 15.6412 21.353 15.4232 21.4838L12.3902 23.3033C12.2659 23.378 12.1053 23.3376 12.0309 23.2136C11.9564 23.0897 11.9968 22.9288 12.1206 22.8543L15.8431 20.6213C15.949 20.5576 16.0238 20.4569 16.0536 20.3374C16.0835 20.218 16.0649 20.0939 16.0015 19.9879C15.938 19.8822 15.8372 19.8074 15.7176 19.7775C15.5974 19.7477 15.4738 19.7662 15.3681 19.8295L14.679 20.2429C14.6789 20.2429 14.6789 20.2431 14.6787 20.2431H14.6786L11.6457 22.0626C11.5214 22.1374 11.3607 22.097 11.2864 21.9729C11.2119 21.8489 11.2523 21.688 11.3761 21.6136L14.4091 19.7941C14.5151 19.7305 14.59 19.6296 14.6198 19.5104C14.6526 19.3795 14.6277 19.2457 14.55 19.1335C14.4152 18.9385 14.1269 18.8867 13.9083 19.0181L9.27095 21.8001C9.16944 21.8607 9.0394 21.846 8.95428 21.7638C8.86901 21.6815 8.84982 21.5521 8.90722 21.4486L9.8715 19.7113C9.96826 19.5376 9.96448 19.3231 9.86133 19.1512L9.86138 19.1512Z" fill="#103E13"/>
<path d="M27.9983 26.1458C27.515 26.9518 26.7202 27.5035 25.76 27.6996C24.8084 27.8936 23.8075 27.7147 22.9413 27.1953L18.3006 24.4114C18.0748 24.2759 17.9151 24.0608 17.8511 23.8053C17.7876 23.5503 17.8273 23.2854 17.9626 23.0597C18.0471 22.9187 18.1655 22.8075 18.3027 22.7254L18.3014 22.7245C18.0756 22.5891 17.9159 22.3739 17.8523 22.1187C17.7883 21.8636 17.828 21.5985 17.9634 21.3726C18.0507 21.2275 18.1702 21.114 18.3067 21.0335C18.1086 20.8972 17.9659 20.6992 17.9072 20.4644C17.8432 20.2091 17.8829 19.9442 18.0184 19.7185C18.1537 19.4927 18.369 19.3332 18.6242 19.2694C18.7039 19.2494 18.7847 19.2395 18.8648 19.2395C19.0219 19.2397 19.176 19.2795 19.3177 19.3537C19.3264 19.1702 19.381 18.9899 19.4883 18.8353C19.7823 18.411 20.3714 18.2936 20.8302 18.5689L24.6304 20.8484L24.1406 19.9662C23.9527 19.6293 23.9595 19.2137 24.1588 18.8815C24.2559 18.7198 24.3946 18.5855 24.5604 18.4925C24.6967 18.4171 24.8443 18.3813 24.9899 18.3813C25.3026 18.3815 25.6063 18.5465 25.768 18.8386C26.3315 19.8539 27.3948 21.7686 27.4696 21.9023C27.4855 21.9254 27.5336 21.9943 27.5747 22.0528C27.6139 22.1084 27.6562 22.1616 27.7 22.2144C28.6489 23.3646 28.7633 24.8709 27.9983 26.1458L27.9983 26.1458ZM27.296 22.5481C27.2438 22.485 27.1927 22.4205 27.1461 22.3541C27.0044 22.153 27.0008 22.1478 26.9901 22.0952C26.8245 21.8211 26.4204 21.0937 25.3097 19.0926C25.2123 18.917 24.9909 18.8528 24.8146 18.9503C24.7279 18.9988 24.6582 19.0665 24.6073 19.1513C24.5044 19.323 24.5004 19.5375 24.5977 19.7117L25.5616 21.4485C25.6192 21.5522 25.6 21.6814 25.5149 21.7637C25.4299 21.8462 25.3 21.8606 25.198 21.8L20.5607 19.018C20.3421 18.887 20.054 18.9383 19.9188 19.1334C19.8411 19.2456 19.8163 19.3794 19.8488 19.5101C19.8787 19.6295 19.9536 19.7302 20.0597 19.7938C20.06 19.794 20.0602 19.7943 20.0605 19.7945L23.0926 21.6135C23.2166 21.6879 23.2568 21.8487 23.1823 21.9728C23.1078 22.0966 22.9473 22.1371 22.823 22.0625L19.1005 19.8294C18.9949 19.7661 18.8706 19.7474 18.7512 19.7774C18.6315 19.8073 18.5308 19.8821 18.4673 19.9882C18.4037 20.0939 18.3854 20.2181 18.4149 20.3375C18.4447 20.4569 18.5197 20.5577 18.6256 20.6213L19.35 21.0558L22.3479 22.8545C22.4719 22.9289 22.5121 23.0896 22.4376 23.2138C22.3632 23.3376 22.2026 23.3779 22.0783 23.3035L19.0456 21.484C18.8275 21.3528 18.5434 21.4239 18.4123 21.6424C18.3486 21.7483 18.3303 21.8725 18.3598 21.9918C18.3896 22.1112 18.4646 22.2119 18.5707 22.2757L19.3142 22.7218L21.6034 24.0952C21.7273 24.1697 21.7675 24.3304 21.6931 24.4545C21.6186 24.5783 21.4581 24.619 21.3338 24.5442L19.0446 23.1708C18.939 23.1075 18.8152 23.0888 18.6951 23.1188C18.5757 23.1486 18.4747 23.2234 18.4113 23.3292C18.3478 23.4351 18.3293 23.5594 18.3588 23.6787C18.3886 23.7981 18.4636 23.8987 18.5697 23.9625L23.2104 26.7465C23.9635 27.1983 24.8319 27.3547 25.6549 27.1868C26.4692 27.0205 27.142 26.5552 27.549 25.8766C28.2068 24.7808 28.1121 23.5365 27.2963 22.5481L27.296 22.5481Z" fill="#103E13"/>
</svg>
