<svg width="46" height="40" viewBox="0 0 46 40" fill="none" xmlns="http://www.w3.org/2000/svg">
<path d="M45.9187 27.08C45.9187 33.9997 40.3091 39.6093 33.3894 39.6093L14.5955 39.6093C12.6734 39.6093 11.1152 38.051 11.1152 36.1289L11.1152 12.4625C11.1152 8.61825 14.2316 5.50185 18.0759 5.50185L42.4383 5.50185C44.3605 5.50185 45.9187 7.06005 45.9187 8.9822L45.9187 27.08Z" fill="#E8F5E9"/>
<path d="M17.3729 7.59009C14.887 7.59009 12.8633 9.63227 12.8633 12.1287C12.8633 13.708 13.6743 15.1024 14.8989 15.9152C13.4198 16.4097 12.14 17.334 11.2014 18.5432C10.6824 18.144 10.1025 17.823 9.47738 17.593C10.4253 16.8892 11.0448 15.7587 11.0448 14.4881C11.0448 12.3709 9.33242 10.6376 7.22798 10.6376C5.12355 10.6376 3.41116 12.3709 3.41116 14.4881C3.41116 15.7594 4.03115 16.8904 4.9799 17.5942C2.46808 18.5211 0.674164 20.9478 0.674164 23.8038V25.81C0.674421 25.9629 0.735597 26.1095 0.844067 26.2172C0.952536 26.3251 1.09931 26.3853 1.25225 26.3848H10.054C10.0754 26.3871 10.0967 26.3884 10.118 26.3881H24.6282C24.6495 26.3884 24.6711 26.3871 24.6922 26.3848H33.4946C33.811 26.3835 34.0673 26.1267 34.0681 25.81V23.8038C34.0681 20.9478 32.2773 18.5211 29.7668 17.5939C30.7155 16.8904 31.3355 15.7592 31.3355 14.4879C31.3355 12.3706 29.6231 10.6373 27.5187 10.6373C25.4143 10.6373 23.7018 12.3706 23.7018 14.4879C23.7018 15.7584 24.3216 16.8891 25.2695 17.5927C24.6431 17.8233 24.063 18.1453 23.5433 18.5455C22.605 17.3356 21.327 16.41 19.848 15.9152C21.0723 15.1024 21.8836 13.708 21.8836 12.1287C21.8836 9.63227 19.8588 7.59009 17.373 7.59009H17.3729ZM17.3729 8.74164C19.232 8.74164 20.7308 10.2505 20.7308 12.1287C20.7308 13.9922 19.2554 15.4864 17.4168 15.5104C17.4022 15.5104 17.3878 15.5083 17.3729 15.5083C17.358 15.5083 17.3438 15.5104 17.3289 15.5104C15.4903 15.4867 14.0159 13.9923 14.0159 12.1287C14.0159 10.2502 15.5134 8.74164 17.3726 8.74164H17.3729ZM7.22805 11.7891C8.70322 11.7891 9.89332 12.9864 9.89332 14.4881C9.89332 15.9797 8.71861 17.1718 7.25733 17.188C7.24756 17.188 7.23805 17.187 7.22803 17.187C7.21826 17.187 7.20875 17.188 7.19873 17.188C5.73745 17.1718 4.56274 15.9794 4.56274 14.4881C4.56274 12.9864 5.75284 11.7891 7.22801 11.7891H7.22805ZM27.5183 11.7891C28.9935 11.7891 30.1836 12.9864 30.1836 14.4881C30.1836 15.9797 29.0089 17.1718 27.5476 17.188C27.5378 17.188 27.5283 17.187 27.5183 17.187C27.5085 17.187 27.499 17.188 27.489 17.188C26.0277 17.1718 24.853 15.9794 24.853 14.4881C24.853 12.9864 26.0431 11.7891 27.5183 11.7891H27.5183ZM17.3288 16.6618C17.3434 16.6621 17.3578 16.6639 17.3727 16.6639C17.3874 16.6639 17.4018 16.6618 17.4167 16.6618C21.1039 16.6855 24.0549 19.6618 24.0549 23.3875L24.0546 25.2362H10.6914V23.3875C10.6914 19.6615 13.6414 16.6855 17.3282 16.6618H17.3288ZM7.18396 18.3409C7.19861 18.3411 7.21301 18.3429 7.22792 18.3429C7.24282 18.3429 7.25696 18.3409 7.27187 18.3409C8.51903 18.3509 9.65722 18.7809 10.5635 19.5004C9.915 20.6478 9.53996 21.9723 9.53996 23.3879V25.2321H1.82525V23.8037C1.82525 20.7758 4.20599 18.3645 7.18383 18.3406L7.18396 18.3409ZM27.4742 18.3409C27.4891 18.3411 27.5033 18.3429 27.5182 18.3429C27.5331 18.3429 27.5472 18.3409 27.5621 18.3409C30.54 18.3645 32.9207 20.7761 32.9207 23.804V25.2321H25.2021L25.2018 23.3879C25.2018 21.9731 24.8278 20.6496 24.1805 19.5024C25.0871 18.7819 26.2261 18.3509 27.4743 18.3409H27.4742Z" fill="#103E13"/>
</svg>
