<svg width="46" height="40" viewBox="0 0 46 40" fill="none" xmlns="http://www.w3.org/2000/svg">
<path d="M45.7922 27.08C45.7922 33.9997 40.1827 39.6093 33.263 39.6093L14.4691 39.6093C12.547 39.6093 10.9888 38.051 10.9888 36.1289L10.9888 12.4625C10.9888 8.61825 14.1052 5.50185 17.9495 5.50185L42.3119 5.50185C44.234 5.50185 45.7922 7.06005 45.7922 8.9822L45.7922 27.08Z" fill="#E8F5E9"/>
<path d="M19.2833 13.8623C19.0661 13.8623 18.8896 13.686 18.8896 13.4685V12.7994C18.8896 12.5822 19.0659 12.4056 19.2833 12.4056C19.5005 12.4056 19.6771 12.5819 19.6771 12.7994V13.4685C19.6771 13.686 19.5005 13.8623 19.2833 13.8623Z" fill="#103E13"/>
<path d="M17.6279 13.8623C17.4108 13.8623 17.2342 13.686 17.2342 13.4685V12.7994C17.2342 12.5822 17.4105 12.4056 17.6279 12.4056C17.8451 12.4056 18.0217 12.5819 18.0217 12.7994V13.4685C18.0214 13.686 17.8454 13.8623 17.6279 13.8623Z" fill="#103E13"/>
<path d="M15.9727 13.8623C15.7555 13.8623 15.5789 13.686 15.5789 13.4685V12.7994C15.5789 12.5822 15.7552 12.4056 15.9727 12.4056C16.1899 12.4056 16.3664 12.5819 16.3664 12.7994V13.4685C16.3664 13.686 16.1901 13.8623 15.9727 13.8623Z" fill="#103E13"/>
<path d="M19.2833 16.5987C19.0661 16.5987 18.8896 16.4224 18.8896 16.205V15.5361C18.8896 15.3189 19.0659 15.1423 19.2833 15.1423C19.5005 15.1423 19.6771 15.3186 19.6771 15.5361V16.205C19.6771 16.4224 19.5005 16.5987 19.2833 16.5987Z" fill="#103E13"/>
<path d="M17.6279 16.5987C17.4108 16.5987 17.2342 16.4224 17.2342 16.205V15.5361C17.2342 15.3189 17.4105 15.1423 17.6279 15.1423C17.8451 15.1423 18.0217 15.3186 18.0217 15.5361V16.205C18.0214 16.4224 17.8454 16.5987 17.6279 16.5987Z" fill="#103E13"/>
<path d="M15.9727 16.5987C15.7555 16.5987 15.5789 16.4224 15.5789 16.205V15.5361C15.5789 15.3189 15.7552 15.1423 15.9727 15.1423C16.1899 15.1423 16.3664 15.3186 16.3664 15.5361V16.205C16.3664 16.4224 16.1901 16.5987 15.9727 16.5987Z" fill="#103E13"/>
<path d="M19.2833 19.3351C19.0661 19.3351 18.8896 19.1588 18.8896 18.9413V18.2722C18.8896 18.055 19.0659 17.8784 19.2833 17.8784C19.5005 17.8784 19.6771 18.0547 19.6771 18.2722V18.9413C19.6771 19.1588 19.5005 19.3351 19.2833 19.3351Z" fill="#103E13"/>
<path d="M17.6279 19.3351C17.4108 19.3351 17.2342 19.1588 17.2342 18.9413V18.2722C17.2342 18.055 17.4105 17.8784 17.6279 17.8784C17.8451 17.8784 18.0217 18.0547 18.0217 18.2722V18.9413C18.0214 19.1588 17.8454 19.3351 17.6279 19.3351Z" fill="#103E13"/>
<path d="M15.9727 19.3351C15.7555 19.3351 15.5789 19.1588 15.5789 18.9413V18.2722C15.5789 18.055 15.7552 17.8784 15.9727 17.8784C16.1899 17.8784 16.3664 18.0547 16.3664 18.2722V18.9413C16.3664 19.1588 16.1901 19.3351 15.9727 19.3351Z" fill="#103E13"/>
<path d="M19.2833 22.0709C19.0661 22.0709 18.8896 21.8946 18.8896 21.6772V21.008C18.8896 20.7908 19.0659 20.6143 19.2833 20.6143C19.5005 20.6143 19.6771 20.7905 19.6771 21.008V21.6772C19.6771 21.8946 19.5005 22.0709 19.2833 22.0709Z" fill="#103E13"/>
<path d="M17.6279 22.0709C17.4108 22.0709 17.2342 21.8946 17.2342 21.6772V21.008C17.2342 20.7908 17.4105 20.6143 17.6279 20.6143C17.8451 20.6143 18.0217 20.7905 18.0217 21.008V21.6772C18.0214 21.8946 17.8454 22.0709 17.6279 22.0709Z" fill="#103E13"/>
<path d="M15.9727 22.0709C15.7555 22.0709 15.5789 21.8946 15.5789 21.6772V21.008C15.5789 20.7908 15.7552 20.6143 15.9727 20.6143C16.1899 20.6143 16.3664 20.7905 16.3664 21.008V21.6772C16.3664 21.8946 16.1901 22.0709 15.9727 22.0709Z" fill="#103E13"/>
<path d="M19.2833 24.8073C19.0661 24.8073 18.8896 24.631 18.8896 24.4136V23.7447C18.8896 23.5275 19.0659 23.351 19.2833 23.351C19.5005 23.351 19.6771 23.5272 19.6771 23.7447V24.4136C19.6771 24.6308 19.5005 24.8073 19.2833 24.8073Z" fill="#103E13"/>
<path d="M17.6279 24.8073C17.4108 24.8073 17.2342 24.631 17.2342 24.4136V23.7447C17.2342 23.5275 17.4105 23.351 17.6279 23.351C17.8451 23.351 18.0217 23.5272 18.0217 23.7447V24.4136C18.0214 24.6308 17.8454 24.8073 17.6279 24.8073Z" fill="#103E13"/>
<path d="M15.9727 24.8073C15.7555 24.8073 15.5789 24.631 15.5789 24.4136L15.5792 23.7447C15.5792 23.5275 15.7555 23.351 15.9729 23.351C16.1901 23.351 16.3667 23.5272 16.3667 23.7447V24.4136C16.3664 24.6308 16.1901 24.8073 15.9727 24.8073Z" fill="#103E13"/>
<path d="M4.72445 27.5305C4.72445 27.7477 4.90073 27.9243 5.1182 27.9243H29.0962C29.3134 27.9243 29.49 27.748 29.49 27.5305C29.49 27.3133 29.3137 27.1368 29.0962 27.1368H28.3684V15.8317C28.3684 15.6145 28.1921 15.4379 27.9746 15.4379L21.5459 15.4382V7.28785C21.5459 7.15002 21.474 7.02261 21.3564 6.95122C21.2392 6.87955 21.0926 6.87516 20.9707 6.93859L13.6617 10.744C13.5313 10.8118 13.45 10.9464 13.45 11.0933V18.2124H6.3765C6.15932 18.2124 5.98276 18.3887 5.98276 18.6062V27.1368H5.11732C4.90013 27.1366 4.72412 27.3128 4.72412 27.5303L4.72445 27.5305ZM21.546 21.4017H27.5813V27.1371L21.546 27.1368V21.4017ZM21.546 18.6655H27.5813V20.6145L21.546 20.6142V18.6655ZM21.546 16.2253H27.5813V17.8786H21.546V16.2253ZM14.2371 11.3323L20.7583 7.93688V27.1365H14.2371V11.3323ZM8.71669 23.9919C8.71669 23.1748 9.36414 22.5098 10.1601 22.5098C10.9561 22.5098 11.6039 23.1745 11.6039 23.9919V27.1369H8.71669V23.9919ZM6.77023 18.9998H13.4499V27.1368H12.3913V23.9918C12.3913 22.7405 11.3908 21.7224 10.1601 21.7224C8.93003 21.7224 7.92949 22.7402 7.92949 23.9918V27.1368H6.77023V18.9998Z" fill="#103E13"/>
</svg>
