<svg width="13" height="13" viewBox="0 0 13 13" fill="none" xmlns="http://www.w3.org/2000/svg">
<path fill-rule="evenodd" clip-rule="evenodd" d="M12.3397 6.76609C12.3397 7.16779 12.2988 7.56893 12.2185 7.95994C12.1402 8.34167 12.0241 8.71644 11.8722 9.0747C11.7237 9.42662 11.5395 9.76575 11.3243 10.082C11.1123 10.3963 10.868 10.6911 10.5997 10.9599C10.3309 11.2275 10.035 11.471 9.72091 11.6839C9.40361 11.8977 9.06399 12.0816 8.71186 12.2308C8.35309 12.3819 7.97745 12.4978 7.59605 12.576C7.20452 12.6565 6.80192 12.6976 6.39964 12.6976C5.99706 12.6976 5.59448 12.6565 5.2035 12.576C4.82152 12.4978 4.44591 12.3819 4.08741 12.2308C3.73531 12.0816 3.39536 11.8977 3.07806 11.6839C2.76395 11.4711 2.4681 11.2275 2.19981 10.9599C1.93124 10.6911 1.68701 10.3963 1.4747 10.082C1.26064 9.76575 1.07616 9.4266 0.927092 9.0747C0.77509 8.71644 0.658799 8.34165 0.580194 7.95994C0.500729 7.56893 0.460114 7.16779 0.460114 6.76609C0.460114 6.36409 0.500706 5.9621 0.580218 5.57194C0.658822 5.19021 0.775114 4.81486 0.927115 4.45718C1.07619 4.105 1.26067 3.76557 1.47472 3.44928C1.68703 3.13476 1.93126 2.84048 2.19983 2.57142C2.46813 2.30379 2.76397 2.06082 3.07809 1.84823C3.39539 1.63361 3.73533 1.44972 4.08744 1.30026C4.44594 1.14875 4.82152 1.03263 5.20353 0.955022C5.5945 0.875091 5.99708 0.834534 6.39966 0.834534C6.80194 0.834534 7.20452 0.875091 7.59608 0.955022C7.97748 1.03265 8.35309 1.14878 8.71189 1.30026C9.06399 1.4497 9.40364 1.63361 9.72094 1.84823C10.0351 2.06082 10.3309 2.30379 10.5998 2.57142C10.8681 2.84048 11.1123 3.13476 11.3243 3.44928C11.5395 3.76557 11.7237 4.10503 11.8722 4.45718C12.0241 4.81486 12.1402 5.19021 12.2185 5.57194C12.2988 5.9621 12.3397 6.36409 12.3397 6.76609ZM4.23531 2.18448C2.82075 2.8515 1.76499 4.15307 1.43578 5.72169C1.56951 5.72285 3.68335 5.7495 6.11884 5.10333C5.24089 3.54571 4.30289 2.27458 4.23531 2.18448ZM6.53911 5.88332C3.92728 6.66412 1.42099 6.60794 1.33109 6.60448C1.32963 6.65892 1.32702 6.71162 1.32702 6.76609C1.32702 8.06736 1.81864 9.25366 2.62671 10.1507C2.62496 10.148 4.01314 7.68883 6.75056 6.8049C6.81668 6.78289 6.88399 6.76318 6.95069 6.74408C6.82338 6.45621 6.68442 6.16773 6.53911 5.88332ZM9.74963 2.96445C8.85657 2.1781 7.68394 1.70111 6.39962 1.70111C5.98746 1.70111 5.58749 1.75093 5.20435 1.84303C5.28032 1.94499 6.23314 3.20717 7.10065 4.79777C9.01466 4.08125 9.73715 2.98298 9.74963 2.96445ZM7.29646 7.58341C7.28516 7.58715 7.27386 7.59038 7.26282 7.59442C4.2699 8.63628 3.29253 10.7359 3.28195 10.7589C4.14311 11.4276 5.22324 11.8311 6.39966 11.8311C7.10212 11.8311 7.77125 11.6882 8.38005 11.4296C8.30493 10.9871 8.01025 9.43586 7.29646 7.58341ZM9.23422 10.9668C10.3732 10.1993 11.1821 8.98058 11.4078 7.5689C11.3034 7.53531 9.88419 7.08667 8.24689 7.3488C8.91225 9.17462 9.18259 10.6616 9.23422 10.9668ZM7.49109 5.55255C7.60882 5.7941 7.72283 6.03995 7.82811 6.28704C7.86554 6.37567 7.90208 6.46257 7.93775 6.54944C9.68033 6.33047 11.3971 6.69888 11.4705 6.71392C11.4589 5.51315 11.0287 4.41112 10.317 3.54834C10.3074 3.56192 9.49385 4.73578 7.49109 5.55255Z" fill="white"/>
</svg>
