<svg width="12" height="13" viewBox="0 0 12 13" fill="none" xmlns="http://www.w3.org/2000/svg">
<path fill-rule="evenodd" clip-rule="evenodd" d="M5.98915 0.834534C4.37598 0.834534 4.17353 0.841587 3.53995 0.87042C2.9076 0.899377 2.47597 0.999488 2.0983 1.14638C1.70763 1.29809 1.37623 1.50103 1.04607 1.83132C0.71567 2.16147 0.512725 2.49287 0.360516 2.88341C0.213257 3.26121 0.113022 3.69296 0.0845605 4.32506C0.0562224 4.95865 0.0487976 5.16122 0.0487976 6.77439C0.0487976 8.38755 0.0559749 8.58938 0.0846842 9.22297C0.113765 9.85532 0.213876 10.2869 0.36064 10.6646C0.512478 11.0553 0.715423 11.3867 1.0457 11.7168C1.37574 12.0472 1.70713 12.2507 2.09755 12.4024C2.47548 12.5493 2.90723 12.6494 3.53945 12.6784C4.17304 12.7072 4.37536 12.7142 5.98841 12.7142C7.60169 12.7142 7.80353 12.7072 8.43711 12.6784C9.06946 12.6494 9.50158 12.5493 9.87951 12.4024C10.2701 12.2507 10.6009 12.0472 10.931 11.7168C11.2614 11.3867 11.4643 11.0553 11.6165 10.6647C11.7626 10.2869 11.8628 9.85519 11.8925 9.22309C11.921 8.58951 11.9284 8.38755 11.9284 6.77439C11.9284 5.16122 11.921 4.95877 11.8925 4.32519C11.8628 3.69284 11.7626 3.26121 11.6165 2.88354C11.4643 2.49287 11.2614 2.16147 10.931 1.83132C10.6006 1.50091 10.2702 1.29797 9.87913 1.14638C9.50047 0.999488 9.06859 0.899377 8.43624 0.87042C7.80266 0.841587 7.60095 0.834534 5.98729 0.834534H5.98915ZM5.45627 1.90493C5.61442 1.90468 5.79088 1.90493 5.98912 1.90493C7.57506 1.90493 7.76303 1.91062 8.38932 1.93908C8.96845 1.96556 9.28277 2.06233 9.49215 2.14364C9.76934 2.2513 9.96697 2.37999 10.1747 2.58789C10.3826 2.79578 10.5113 2.99378 10.6192 3.27097C10.7005 3.4801 10.7974 3.79442 10.8238 4.37356C10.8523 4.99972 10.8584 5.18781 10.8584 6.77301C10.8584 8.35821 10.8523 8.5463 10.8238 9.17246C10.7973 9.7516 10.7005 10.0659 10.6192 10.2751C10.5116 10.5522 10.3826 10.7496 10.1747 10.9574C9.96684 11.1653 9.76947 11.294 9.49215 11.4016C9.28302 11.4833 8.96845 11.5798 8.38932 11.6063C7.76316 11.6348 7.57506 11.641 5.98912 11.641C4.40306 11.641 4.21509 11.6348 3.58893 11.6063C3.00979 11.5796 2.69547 11.4828 2.48597 11.4015C2.20878 11.2939 2.01078 11.1652 1.80289 10.9573C1.59499 10.7494 1.46629 10.5519 1.35839 10.2746C1.27708 10.0654 1.18019 9.75111 1.15383 9.17197C1.12537 8.54581 1.11968 8.35771 1.11968 6.77153C1.11968 5.18534 1.12537 4.99823 1.15383 4.37207C1.18031 3.79294 1.27708 3.47862 1.35839 3.26924C1.46605 2.99205 1.59499 2.79405 1.80289 2.58616C2.01078 2.37826 2.20878 2.24956 2.48597 2.14166C2.69535 2.05998 3.00979 1.96346 3.58893 1.93685C4.13688 1.91211 4.34923 1.90468 5.45627 1.90344V1.90493ZM9.15977 2.89119C8.76625 2.89119 8.44699 3.21009 8.44699 3.60373C8.44699 3.99724 8.76625 4.31651 9.15977 4.31651C9.55329 4.31651 9.87255 3.99724 9.87255 3.60373C9.87255 3.21021 9.55329 2.89119 9.15977 2.89119ZM5.98916 3.72401C4.30459 3.72401 2.93879 5.0898 2.93879 6.77437C2.93879 8.45894 4.30459 9.82412 5.98916 9.82412C7.67373 9.82412 9.03903 8.45894 9.03903 6.77437C9.03903 5.0898 7.67373 3.72401 5.98916 3.72401ZM5.98913 4.79442C7.08256 4.79442 7.96909 5.68082 7.96909 6.77437C7.96909 7.8678 7.08256 8.75432 5.98913 8.75432C4.89558 8.75432 4.00918 7.8678 4.00918 6.77437C4.00918 5.68082 4.89558 4.79442 5.98913 4.79442Z" fill="white"/>
</svg>
