<svg width="13" height="10" viewBox="0 0 13 10" fill="none" xmlns="http://www.w3.org/2000/svg">
<path fill-rule="evenodd" clip-rule="evenodd" d="M10.8638 1.07724C11.3749 1.21751 11.7775 1.63079 11.9141 2.15563C12.1624 3.10684 12.1624 5.09155 12.1624 5.09155C12.1624 5.09155 12.1624 7.07619 11.9141 8.02747C11.7775 8.55231 11.3749 8.9656 10.8638 9.10593C9.93744 9.36078 6.22257 9.36078 6.22257 9.36078C6.22257 9.36078 2.5077 9.36078 1.5813 9.10593C1.07014 8.9656 0.66758 8.55231 0.530965 8.02747C0.282776 7.07619 0.282776 5.09155 0.282776 5.09155C0.282776 5.09155 0.282776 3.10684 0.530965 2.15563C0.66758 1.63079 1.07014 1.21751 1.5813 1.07724C2.5077 0.822327 6.22257 0.822327 6.22257 0.822327C6.22257 0.822327 9.93744 0.822327 10.8638 1.07724ZM5.10887 3.42095V7.13332L8.07877 5.2772L5.10887 3.42095Z" fill="white"/>
</svg>
