<svg width="12" height="13" viewBox="0 0 12 13" fill="none" xmlns="http://www.w3.org/2000/svg">
<path fill-rule="evenodd" clip-rule="evenodd" d="M5.98915 0.966125C4.37598 0.966125 4.17353 0.973179 3.53995 1.00201C2.9076 1.03097 2.47597 1.13108 2.0983 1.27797C1.70763 1.42968 1.37623 1.63263 1.04607 1.96291C0.71567 2.29306 0.512725 2.62446 0.360516 3.015C0.213257 3.3928 0.113022 3.82456 0.0845605 4.45666C0.0562224 5.09024 0.0487976 5.29281 0.0487976 6.90598C0.0487976 8.51915 0.0559749 8.72098 0.0846842 9.35456C0.113765 9.98691 0.213876 10.4185 0.36064 10.7962C0.512478 11.1869 0.715423 11.5183 1.0457 11.8484C1.37574 12.1788 1.70713 12.3823 2.09755 12.534C2.47548 12.6809 2.90723 12.781 3.53945 12.8099C4.17304 12.8388 4.37536 12.8458 5.98841 12.8458C7.60169 12.8458 7.80353 12.8388 8.43711 12.8099C9.06946 12.781 9.50158 12.6809 9.87951 12.534C10.2701 12.3823 10.6009 12.1788 10.931 11.8484C11.2614 11.5183 11.4643 11.1869 11.6165 10.7963C11.7626 10.4185 11.8628 9.98678 11.8925 9.35468C11.921 8.7211 11.9284 8.51915 11.9284 6.90598C11.9284 5.29281 11.921 5.09036 11.8925 4.45678C11.8628 3.82443 11.7626 3.3928 11.6165 3.01513C11.4643 2.62446 11.2614 2.29306 10.931 1.96291C10.6006 1.6325 10.2702 1.42956 9.87913 1.27797C9.50047 1.13108 9.06859 1.03097 8.43624 1.00201C7.80266 0.973179 7.60095 0.966125 5.98729 0.966125H5.98915ZM5.45627 2.03652C5.61442 2.03627 5.79088 2.03652 5.98912 2.03652C7.57506 2.03652 7.76303 2.04221 8.38932 2.07067C8.96845 2.09716 9.28277 2.19393 9.49215 2.27523C9.76934 2.38289 9.96697 2.51158 10.1747 2.71948C10.3826 2.92737 10.5113 3.12537 10.6192 3.40256C10.7005 3.6117 10.7974 3.92601 10.8238 4.50515C10.8523 5.13131 10.8584 5.3194 10.8584 6.9046C10.8584 8.4898 10.8523 8.6779 10.8238 9.30406C10.7973 9.88319 10.7005 10.1975 10.6192 10.4066C10.5116 10.6838 10.3826 10.8812 10.1747 11.089C9.96684 11.2969 9.76947 11.4256 9.49215 11.5332C9.28302 11.6149 8.96845 11.7114 8.38932 11.7379C7.76316 11.7664 7.57506 11.7726 5.98912 11.7726C4.40306 11.7726 4.21509 11.7664 3.58893 11.7379C3.00979 11.7112 2.69547 11.6144 2.48597 11.5331C2.20878 11.4255 2.01078 11.2968 1.80289 11.0889C1.59499 10.881 1.46629 10.6835 1.35839 10.4061C1.27708 10.197 1.18019 9.8827 1.15383 9.30356C1.12537 8.6774 1.11968 8.48931 1.11968 6.90312C1.11968 5.31693 1.12537 5.12982 1.15383 4.50366C1.18031 3.92453 1.27708 3.61021 1.35839 3.40083C1.46605 3.12364 1.59499 2.92564 1.80289 2.71775C2.01078 2.50985 2.20878 2.38116 2.48597 2.27325C2.69535 2.19158 3.00979 2.09505 3.58893 2.06845C4.13688 2.0437 4.34923 2.03627 5.45627 2.03504V2.03652ZM9.15977 3.02279C8.76625 3.02279 8.44699 3.34168 8.44699 3.73532C8.44699 4.12884 8.76625 4.4481 9.15977 4.4481C9.55329 4.4481 9.87255 4.12884 9.87255 3.73532C9.87255 3.34181 9.55329 3.02279 9.15977 3.02279ZM5.98916 3.8556C4.30459 3.8556 2.93879 5.2214 2.93879 6.90596C2.93879 8.59053 4.30459 9.95571 5.98916 9.95571C7.67373 9.95571 9.03903 8.59053 9.03903 6.90596C9.03903 5.2214 7.67373 3.8556 5.98916 3.8556ZM5.98913 4.92601C7.08256 4.92601 7.96909 5.81241 7.96909 6.90596C7.96909 7.99939 7.08256 8.88592 5.98913 8.88592C4.89558 8.88592 4.00918 7.99939 4.00918 6.90596C4.00918 5.81241 4.89558 4.92601 5.98913 4.92601Z" fill="white"/>
</svg>
