<svg width="13" height="13" viewBox="0 0 13 13" fill="none" xmlns="http://www.w3.org/2000/svg">
<path fill-rule="evenodd" clip-rule="evenodd" d="M12.3397 6.89768C12.3397 7.29938 12.2988 7.70052 12.2185 8.09154C12.1402 8.47327 12.0241 8.84803 11.8722 9.20629C11.7237 9.55822 11.5395 9.89735 11.3243 10.2136C11.1123 10.5279 10.868 10.8227 10.5997 11.0915C10.3309 11.3591 10.035 11.6026 9.72091 11.8155C9.40361 12.0293 9.06399 12.2132 8.71186 12.3624C8.35309 12.5135 7.97745 12.6294 7.59605 12.7076C7.20452 12.7881 6.80192 12.8292 6.39964 12.8292C5.99706 12.8292 5.59448 12.7881 5.2035 12.7076C4.82152 12.6294 4.44591 12.5135 4.08741 12.3624C3.73531 12.2132 3.39536 12.0293 3.07806 11.8155C2.76395 11.6027 2.4681 11.3591 2.19981 11.0915C1.93124 10.8227 1.68701 10.5279 1.4747 10.2136C1.26064 9.89735 1.07616 9.55819 0.927092 9.20629C0.77509 8.84803 0.658799 8.47324 0.580194 8.09154C0.500729 7.70052 0.460114 7.29938 0.460114 6.89768C0.460114 6.49569 0.500706 6.09369 0.580218 5.70353C0.658822 5.3218 0.775114 4.94645 0.927115 4.58877C1.07619 4.2366 1.26067 3.89716 1.47472 3.58088C1.68703 3.26635 1.93126 2.97208 2.19983 2.70301C2.46813 2.43538 2.76397 2.19241 3.07809 1.97983C3.39539 1.7652 3.73533 1.58131 4.08744 1.43185C4.44594 1.28035 4.82152 1.16422 5.20353 1.08661C5.5945 1.00668 5.99708 0.966125 6.39966 0.966125C6.80194 0.966125 7.20452 1.00668 7.59608 1.08661C7.97748 1.16425 8.35309 1.28037 8.71189 1.43185C9.06399 1.58129 9.40364 1.7652 9.72094 1.97983C10.0351 2.19241 10.3309 2.43538 10.5998 2.70301C10.8681 2.97208 11.1123 3.26635 11.3243 3.58088C11.5395 3.89716 11.7237 4.23662 11.8722 4.58877C12.0241 4.94645 12.1402 5.3218 12.2185 5.70353C12.2988 6.09369 12.3397 6.49569 12.3397 6.89768ZM4.23531 2.31607C2.82075 2.98309 1.76499 4.28466 1.43578 5.85328C1.56951 5.85444 3.68335 5.8811 6.11884 5.23492C5.24089 3.6773 4.30289 2.40617 4.23531 2.31607ZM6.53911 6.01491C3.92728 6.79572 1.42099 6.73953 1.33109 6.73608C1.32963 6.79052 1.32702 6.84321 1.32702 6.89768C1.32702 8.19895 1.81864 9.38525 2.62671 10.2823C2.62496 10.2796 4.01314 7.82042 6.75056 6.93649C6.81668 6.91449 6.88399 6.89478 6.95069 6.87567C6.82338 6.5878 6.68442 6.29932 6.53911 6.01491ZM9.74963 3.09604C8.85657 2.30969 7.68394 1.83271 6.39962 1.83271C5.98746 1.83271 5.58749 1.88253 5.20435 1.97462C5.28032 2.07658 6.23314 3.33876 7.10065 4.92936C9.01466 4.21284 9.73715 3.11457 9.74963 3.09604ZM7.29646 7.715C7.28516 7.71874 7.27386 7.72197 7.26282 7.72601C4.2699 8.76788 3.29253 10.8675 3.28195 10.8905C4.14311 11.5592 5.22324 11.9627 6.39966 11.9627C7.10212 11.9627 7.77125 11.8198 8.38005 11.5612C8.30493 11.1187 8.01025 9.56745 7.29646 7.715ZM9.23422 11.0984C10.3732 10.3309 11.1821 9.11218 11.4078 7.70049C11.3034 7.6669 9.88419 7.21826 8.24689 7.48039C8.91225 9.30621 9.18259 10.7932 9.23422 11.0984ZM7.49109 5.68414C7.60882 5.92569 7.72283 6.17155 7.82811 6.41863C7.86554 6.50726 7.90208 6.59416 7.93775 6.68103C9.68033 6.46206 11.3971 6.83047 11.4705 6.84551C11.4589 5.64474 11.0287 4.54271 10.317 3.67993C10.3074 3.69351 9.49385 4.86737 7.49109 5.68414Z" fill="white"/>
</svg>
