<svg width="12" height="10" viewBox="0 0 12 10" fill="none" xmlns="http://www.w3.org/2000/svg">
<path fill-rule="evenodd" clip-rule="evenodd" d="M5.47768 2.82117L5.50105 3.20654L5.11154 3.15935C3.69373 2.97846 2.45509 2.36502 1.40341 1.33474L0.889261 0.823539L0.756828 1.20104C0.476381 2.04256 0.655555 2.93127 1.23982 3.52899C1.55143 3.8593 1.48131 3.90649 0.943792 3.70988C0.756828 3.64696 0.593234 3.59977 0.577653 3.62336C0.523122 3.67842 0.710087 4.3941 0.8581 4.67723C1.06064 5.07046 1.47352 5.45583 1.92535 5.68391L2.30707 5.8648L1.85524 5.87266C1.41899 5.87266 1.40341 5.88053 1.45015 6.04568C1.60596 6.55689 2.22138 7.09955 2.90692 7.33549L3.38991 7.50065L2.96924 7.75232C2.34602 8.11409 1.61375 8.31858 0.88147 8.33431C0.530912 8.34217 0.242676 8.37363 0.242676 8.39722C0.242676 8.47587 1.19308 8.91629 1.74618 9.08931C3.40549 9.60052 5.3764 9.38031 6.85654 8.50733C7.90821 7.88602 8.95989 6.65126 9.45067 5.45583C9.71553 4.81879 9.9804 3.65482 9.9804 3.09643C9.9804 2.73466 10.0038 2.68747 10.44 2.25491C10.6971 2.00324 10.9386 1.72798 10.9853 1.64933C11.0632 1.4999 11.0554 1.4999 10.6581 1.6336C9.99598 1.86954 9.9025 1.83808 10.2297 1.48417C10.4712 1.2325 10.7594 0.776351 10.7594 0.642651C10.7594 0.619057 10.6426 0.65838 10.5101 0.729163C10.3699 0.807809 10.0583 0.925779 9.8246 0.996562L9.40393 1.13026L9.02221 0.870727C8.81187 0.729163 8.51585 0.571869 8.36004 0.524681C7.96274 0.414575 7.35511 0.430305 6.99676 0.55614C6.02299 0.91005 5.40756 1.82235 5.47768 2.82117Z" fill="white"/>
</svg>
